<svg xmlns="http://www.w3.org/2000/svg" viewBox="0 0 167.72 145.62"><defs><style>.cls-1{fill:none;stroke:#fff;stroke-miterlimit:10;stroke-width:6px;}</style></defs><g id="Layer_2" data-name="Layer 2"><g id="Layer_1-2" data-name="Layer 1"><path class="cls-1" d="M82.43,6.31H85.3a10.45,10.45,0,0,1,10,7.27L108.6,55.15a10.46,10.46,0,0,0,19.83.26l16-45.42a10.46,10.46,0,0,1,9.87-7h0a10.46,10.46,0,0,1,9.83,14L131.66,106.6a10.46,10.46,0,0,1-9.83,6.9h-5.39a10.46,10.46,0,0,1-10-7.23l-12.68-39a10.46,10.46,0,0,0-19.9,0l-12.67,39a10.47,10.47,0,0,1-10,7.23H45.9a10.46,10.46,0,0,1-9.84-6.9L3.63,17A10.47,10.47,0,0,1,13.47,3h0a10.47,10.47,0,0,1,9.87,7l16,45.42a10.46,10.46,0,0,0,19.82-.26L72.47,13.58A10.46,10.46,0,0,1,82.43,6.31Z"/><path class="cls-1" d="M82.43,35.44H85.3a10.45,10.45,0,0,1,10,7.26L108.6,84.27a10.46,10.46,0,0,0,19.83.27l16-45.42a10.46,10.46,0,0,1,9.87-7h0a10.46,10.46,0,0,1,9.83,14l-32.43,89.57a10.45,10.45,0,0,1-9.83,6.9h-5.39a10.46,10.46,0,0,1-10-7.23l-12.68-39a10.46,10.46,0,0,0-19.9,0l-12.67,39a10.47,10.47,0,0,1-10,7.23H45.9a10.45,10.45,0,0,1-9.84-6.9L3.63,46.15a10.47,10.47,0,0,1,9.84-14h0a10.47,10.47,0,0,1,9.87,7l16,45.42a10.45,10.45,0,0,0,19.82-.27L72.47,42.7A10.46,10.46,0,0,1,82.43,35.44Z"/></g></g></svg>